<svg width="90" height="90" viewBox="0 0 90 90" fill="none" xmlns="http://www.w3.org/2000/svg">
<circle cx="45" cy="45" r="45" fill="#76A1AB"/>
<path d="M46.6895 41.9464C49.1688 41.9464 51.5925 41.2112 53.654 39.8338C55.7155 38.4563 57.3222 36.4985 58.271 34.2079C59.2198 31.9173 59.4681 29.3968 58.9844 26.9651C58.5007 24.5334 57.3068 22.2998 55.5536 20.5466C53.8005 18.7935 51.5668 17.5996 49.1351 17.1159C46.7034 16.6322 44.1829 16.8804 41.8923 17.8292C39.6017 18.778 37.6439 20.3848 36.2665 22.4462C34.889 24.5077 34.1538 26.9314 34.1538 29.4107C34.1538 32.7354 35.4745 35.9239 37.8254 38.2748C40.1763 40.6257 43.3648 41.9464 46.6895 41.9464Z" fill="#EBFEFD"/>
<path d="M65.4916 67.7992C66.3227 67.7992 67.1199 67.469 67.7076 66.8813C68.2953 66.2936 68.6255 65.4964 68.6255 64.6653C68.6255 58.8471 66.3142 53.2672 62.2001 49.1531C58.0861 45.039 52.5062 42.7278 46.688 42.7278C40.8698 42.7278 35.2899 45.039 31.1758 49.1531C27.0618 53.2672 24.7505 58.8471 24.7505 64.6653C24.7505 65.4964 25.0807 66.2936 25.6684 66.8813C26.2561 67.469 27.0532 67.7992 27.8844 67.7992H65.4916Z" fill="#EBFEFD"/>
</svg>
