<svg width="22" height="16" viewBox="0 0 22 16" fill="none" xmlns="http://www.w3.org/2000/svg">
<path d="M11 5.0813C10.2044 5.0813 9.44129 5.39737 8.87868 5.95998C8.31607 6.52259 8 7.28565 8 8.0813C8 8.87695 8.31607 9.64001 8.87868 10.2026C9.44129 10.7652 10.2044 11.0813 11 11.0813C11.7956 11.0813 12.5587 10.7652 13.1213 10.2026C13.6839 9.64001 14 8.87695 14 8.0813C14 7.28565 13.6839 6.52259 13.1213 5.95998C12.5587 5.39737 11.7956 5.0813 11 5.0813ZM11 13.0813C9.67392 13.0813 8.40215 12.5545 7.46447 11.6168C6.52678 10.6792 6 9.40738 6 8.0813C6 6.75522 6.52678 5.48345 7.46447 4.54576C8.40215 3.60808 9.67392 3.0813 11 3.0813C12.3261 3.0813 13.5979 3.60808 14.5355 4.54576C15.4732 5.48345 16 6.75522 16 8.0813C16 9.40738 15.4732 10.6792 14.5355 11.6168C13.5979 12.5545 12.3261 13.0813 11 13.0813ZM11 0.581299C6 0.581299 1.73 3.6913 0 8.0813C1.73 12.4713 6 15.5813 11 15.5813C16 15.5813 20.27 12.4713 22 8.0813C20.27 3.6913 16 0.581299 11 0.581299Z" fill="#BABABA"/>
</svg>
