<svg width="24" height="25" viewBox="0 0 24 25" fill="none" xmlns="http://www.w3.org/2000/svg">
<path d="M11.9064 14.7064C12.6026 14.7064 13.2703 14.4299 13.7625 13.9376C14.2548 13.4453 14.5314 12.7776 14.5314 12.0814C14.5314 12.0046 14.5279 11.9284 14.5213 11.8532L11.6781 14.6964C11.7533 14.7029 11.8293 14.7064 11.9064 14.7064ZM20.5951 3.96175L19.5939 2.96143C19.5587 2.9263 19.5111 2.90656 19.4613 2.90656C19.4116 2.90656 19.364 2.9263 19.3288 2.96143L16.7666 5.52432C15.3532 4.80198 13.7644 4.44081 12.0001 4.44081C7.49545 4.44081 4.13451 6.7869 1.91732 11.4791C1.8282 11.6678 1.78198 11.8739 1.78198 12.0826C1.78198 12.2913 1.8282 12.4974 1.91732 12.6861C2.80326 14.5522 3.87006 16.0479 5.11771 17.1732L2.63826 19.6517C2.60312 19.6869 2.58339 19.7346 2.58339 19.7843C2.58339 19.834 2.60312 19.8817 2.63826 19.9168L3.63881 20.9174C3.67397 20.9525 3.72164 20.9722 3.77135 20.9722C3.82105 20.9722 3.86873 20.9525 3.90389 20.9174L20.5951 4.22706C20.6126 4.20964 20.6264 4.18897 20.6358 4.1662C20.6453 4.14344 20.6501 4.11904 20.6501 4.0944C20.6501 4.06976 20.6453 4.04536 20.6358 4.0226C20.6264 3.99984 20.6126 3.97916 20.5951 3.96175ZM7.78139 12.0814C7.78132 11.3689 7.9658 10.6686 8.31686 10.0486C8.66791 9.4286 9.17357 8.9101 9.78457 8.54361C10.3956 8.17712 11.0911 7.97514 11.8033 7.95734C12.5156 7.93955 13.2203 8.10654 13.8489 8.44206L12.7094 9.58159C12.2498 9.43444 11.7586 9.41672 11.2896 9.53037C10.8206 9.64402 10.392 9.88465 10.0508 10.2259C9.7096 10.5671 9.46897 10.9957 9.35532 11.4647C9.24167 11.9336 9.25939 12.4248 9.40654 12.8844L8.26701 14.0239C7.94723 13.4265 7.78039 12.7591 7.78139 12.0814Z" fill="#BABABA"/>
<path d="M22.0826 11.4765C21.2576 9.73902 20.2756 8.32223 19.1367 7.22613L15.7584 10.6046C16.0432 11.3491 16.1063 12.16 15.9402 12.9395C15.774 13.719 15.3857 14.4337 14.8221 14.9973C14.2585 15.5609 13.5438 15.9492 12.7643 16.1154C11.9848 16.2815 11.1738 16.2184 10.4294 15.9336L7.56396 18.7991C8.89334 19.4143 10.3719 19.7218 11.9997 19.7218C16.5044 19.7218 19.8654 17.3757 22.0826 12.6836C22.1717 12.4948 22.2179 12.2887 22.2179 12.08C22.2179 11.8713 22.1717 11.6652 22.0826 11.4765Z" fill="#BABABA"/>
</svg>
