<svg width="16" height="22" viewBox="0 0 16 22" fill="none" xmlns="http://www.w3.org/2000/svg">
<path d="M14 7.0813H13V5.0813C13 2.3213 10.76 0.0812988 8 0.0812988C5.24 0.0812988 3 2.3213 3 5.0813V7.0813H2C0.9 7.0813 0 7.9813 0 9.0813V19.0813C0 20.1813 0.9 21.0813 2 21.0813H14C15.1 21.0813 16 20.1813 16 19.0813V9.0813C16 7.9813 15.1 7.0813 14 7.0813ZM8 16.0813C6.9 16.0813 6 15.1813 6 14.0813C6 12.9813 6.9 12.0813 8 12.0813C9.1 12.0813 10 12.9813 10 14.0813C10 15.1813 9.1 16.0813 8 16.0813ZM11.1 7.0813H4.9V5.0813C4.9 3.3713 6.29 1.9813 8 1.9813C9.71 1.9813 11.1 3.3713 11.1 5.0813V7.0813Z" fill="#323232"/>
</svg>
