<svg width="24" height="24" viewBox="0 0 24 24" fill="none" xmlns="http://www.w3.org/2000/svg">
<path d="M19.8566 5.57129L4.14233 5.5713" stroke="#323232" stroke-width="1.5" stroke-linecap="round" stroke-linejoin="round"/>
<path d="M9.85693 9.85701V15.5713" stroke="#323232" stroke-width="1.5" stroke-linecap="round" stroke-linejoin="round"/>
<path d="M14.1428 9.85701V15.5713" stroke="#323232" stroke-width="1.5" stroke-linecap="round" stroke-linejoin="round"/>
<path d="M18.4284 5.57129V19.1427C18.4284 19.3322 18.3532 19.5138 18.2192 19.6478C18.0853 19.7817 17.9036 19.857 17.7141 19.857H6.28557C6.09613 19.857 5.91445 19.7817 5.7805 19.6478C5.64654 19.5138 5.57129 19.3322 5.57129 19.1427V5.57129" stroke="#323232" stroke-width="1.5" stroke-linecap="round" stroke-linejoin="round"/>
<path d="M15.5713 5.57128V4.14271C15.5713 3.76383 15.4208 3.40047 15.1529 3.13256C14.885 2.86465 14.5216 2.71414 14.1428 2.71414H9.85704C9.47816 2.71414 9.1148 2.86465 8.84689 3.13256C8.57898 3.40047 8.42847 3.76383 8.42847 4.14271V5.57128" stroke="#323232" stroke-width="1.5" stroke-linecap="round" stroke-linejoin="round"/>
</svg>
